<?xml version="1.0"?>
<svg xmlns="http://www.w3.org/2000/svg" width="512" height="512" viewBox="0 0 512 512"><g><path d="M496,296a8,8,0,0,0,8-8V264a8,8,0,0,0-8-8H448v-8a8.451,8.451,0,0,0-.12-1.34A24.031,24.031,0,0,0,464,224V200a8,8,0,0,0-8-8H424a8,8,0,0,0-8,8v24a24.031,24.031,0,0,0,16.12,22.66A8.451,8.451,0,0,0,432,248v8H240v-8a8.451,8.451,0,0,0-.12-1.34A24.031,24.031,0,0,0,256,224V200a8,8,0,0,0-8-8H216a8,8,0,0,0-8,8v24a24.031,24.031,0,0,0,16.12,22.66A8.451,8.451,0,0,0,224,248v8H113.87A23.9,23.9,0,0,0,120,240V216a8,8,0,0,0-8-8H80a8,8,0,0,0-8,8v24a23.9,23.9,0,0,0,6.13,16H16a8,8,0,0,0-8,8v24a8,8,0,0,0,8,8h8V488H16a8,8,0,0,0,0,16H496a8,8,0,0,0,0-16h-8V296Zm-64-72V208h16v16a8,8,0,0,1-16,0Zm-208,0V208h16v16a8,8,0,0,1-16,0ZM88,224h16v16a8,8,0,0,1-16,0ZM40,472.72V296h7.65ZM95.01,488l3.79-64h57.82l3.37,64Zm4.74-80,3.79-64h48.87l3.37,64ZM160,328H96v-8h64Zm63.01,160,3.79-64h57.82l3.37,64Zm4.74-80,3.79-64h48.87l3.37,64ZM288,328H224v-8h64Zm63.01,160,3.79-64h57.82l3.37,64Zm4.74-80,3.79-64h48.87l3.37,64ZM416,328H352v-8h64Zm15.99,160c0-.14.01-.28,0-.42l-7.56-143.6A8,8,0,0,0,432,336V312a8,8,0,0,0-8-8H344a8,8,0,0,0-8,8v24a8,8,0,0,0,7.51,7.98l-8.5,143.55c-.01.16,0,.31,0,.47H303.99c0-.14.01-.28,0-.42l-7.56-143.6A8,8,0,0,0,304,336V312a8,8,0,0,0-8-8H216a8,8,0,0,0-8,8v24a8,8,0,0,0,7.51,7.98l-8.5,143.55c-.01.16,0,.31,0,.47H175.99c0-.14.01-.28,0-.42l-7.56-143.6A8,8,0,0,0,176,336V312a8,8,0,0,0-8-8H88a8,8,0,0,0-8,8v24a8,8,0,0,0,7.51,7.98l-8.5,143.55c-.01.16,0,.31,0,.47H55.35l8.31-192H448.34l8.31,192ZM472,472.72,464.35,296H472ZM24,280v-8H488v8Z"/><path d="M480,8H32a8,8,0,0,0-8,8V176a8,8,0,0,0,8,8H480a8,8,0,0,0,8-8V16A8,8,0,0,0,480,8Zm-8,160H40V24H472Z"/><path d="M456,32H56a8,8,0,0,0-8,8V152a8,8,0,0,0,8,8H456a8,8,0,0,0,8-8V40A8,8,0,0,0,456,32ZM104,128a8,8,0,0,1-16,0V112h16Zm56,0a8,8,0,0,1-16,0V112h16Zm56,0a8,8,0,0,1-16,0V112h16Zm56,0a8,8,0,0,1-16,0V112h16Zm32,16H281.87A23.9,23.9,0,0,0,288,128V104a8,8,0,0,0-8-8H248a8,8,0,0,0-8,8v24a23.9,23.9,0,0,0,6.13,16H225.87A23.9,23.9,0,0,0,232,128V104a8,8,0,0,0-8-8H192a8,8,0,0,0-8,8v24a23.9,23.9,0,0,0,6.13,16H169.87A23.9,23.9,0,0,0,176,128V104a8,8,0,0,0-8-8H136a8,8,0,0,0-8,8v24a23.9,23.9,0,0,0,6.13,16H113.87A23.9,23.9,0,0,0,120,128V104a8,8,0,0,0-8-8H80a8,8,0,0,0-8,8v24a23.9,23.9,0,0,0,6.13,16H64V72H304Zm0-88H64V48H304Zm64,80H352V104h16Zm56,0H408V104h16Zm24,8h-8V96a8,8,0,0,0-8-8h-8V72a8,8,0,0,0-16,0V88h-8a8,8,0,0,0-8,8v48h-8V96a8,8,0,0,0-8-8h-8V72a8,8,0,0,0-16,0V88h-8a8,8,0,0,0-8,8v48H320V48H448Z"/></g></svg>
