<?xml version="1.0" encoding="iso-8859-1"?>
<!-- Generator: Adobe Illustrator 18.0.0, SVG Export Plug-In . SVG Version: 6.00 Build 0)  -->
<!DOCTYPE svg PUBLIC "-//W3C//DTD SVG 1.1//EN" "http://www.w3.org/Graphics/SVG/1.1/DTD/svg11.dtd">
<svg version="1.1" id="Capa_1" xmlns="http://www.w3.org/2000/svg" xmlns:xlink="http://www.w3.org/1999/xlink" x="0px" y="0px"
	 viewBox="0 0 256.459 256.459" style="enable-background:new 0 0 256.459 256.459;" xml:space="preserve">
<g>
	<path d="M5.503,241.115h245.453c3.039,0,5.503-2.463,5.503-5.502V131.779v-80.25c0-3.039-2.464-5.504-5.503-5.504h-76.314V20.847
		c0-3.039-2.463-5.503-5.502-5.503H87.32c-3.039,0-5.503,2.464-5.503,5.503v25.178H5.503C2.464,46.025,0,48.49,0,51.529v80.25
		v103.834C0,238.652,2.464,241.115,5.503,241.115z M92.823,26.35h70.813v19.675H92.823V26.35z M11.006,57.031H87.32h81.819h76.313
		v69.246h-91.267v-9.838c0-3.039-2.464-5.503-5.504-5.503h-40.906c-3.039,0-5.503,2.464-5.503,5.503v9.838H11.006V57.031z
		 M113.279,131.779v-9.837h29.901v19.677h-29.901V131.779z M102.273,137.283v9.839c0,3.039,2.464,5.503,5.503,5.503h40.906
		c3.04,0,5.504-2.464,5.504-5.503v-9.839h91.267v92.826H11.006v-92.826H102.273z"/>
</g>
<g>
</g>
<g>
</g>
<g>
</g>
<g>
</g>
<g>
</g>
<g>
</g>
<g>
</g>
<g>
</g>
<g>
</g>
<g>
</g>
<g>
</g>
<g>
</g>
<g>
</g>
<g>
</g>
<g>
</g>
</svg>
