<svg id="Layer_2" height="512" viewBox="0 0 128 128" width="512" xmlns="http://www.w3.org/2000/svg" data-name="Layer 2"><path d="m122.25 0h-116.5a5.756 5.756 0 0 0 -5.75 5.75v116.5a5.756 5.756 0 0 0 5.75 5.75h116.5a5.756 5.756 0 0 0 5.75-5.75v-116.5a5.756 5.756 0 0 0 -5.75-5.75zm2.25 122.25a2.253 2.253 0 0 1 -2.25 2.25h-116.5a2.253 2.253 0 0 1 -2.25-2.25v-116.5a2.253 2.253 0 0 1 2.25-2.25h116.5a2.253 2.253 0 0 1 2.25 2.25z"/><path d="m16.375 22.751a6.209 6.209 0 1 0 -6.208-6.209 6.216 6.216 0 0 0 6.208 6.209zm0-8.918a2.709 2.709 0 1 1 -2.708 2.709 2.712 2.712 0 0 1 2.708-2.709z"/><path d="m111.625 10.333a6.209 6.209 0 1 0 6.208 6.209 6.216 6.216 0 0 0 -6.208-6.209zm0 8.918a2.709 2.709 0 1 1 2.708-2.709 2.712 2.712 0 0 1 -2.708 2.709z"/><path d="m16.375 105.249a6.209 6.209 0 1 0 6.209 6.209 6.215 6.215 0 0 0 -6.209-6.209zm0 8.918a2.709 2.709 0 1 1 2.709-2.709 2.712 2.712 0 0 1 -2.709 2.709z"/><path d="m111.625 105.249a6.209 6.209 0 1 0 6.208 6.209 6.216 6.216 0 0 0 -6.208-6.209zm0 8.918a2.709 2.709 0 1 1 2.708-2.709 2.712 2.712 0 0 1 -2.708 2.709z"/><path d="m111.981 75.642a49.449 49.449 0 0 0 -5.816-37.342 49.671 49.671 0 0 0 -30.521-22.28 49.449 49.449 0 0 0 -37.344 5.815 49.671 49.671 0 0 0 -22.28 30.521 49.449 49.449 0 0 0 5.815 37.344 49.671 49.671 0 0 0 30.521 22.28 49.449 49.449 0 0 0 37.344-5.815 49.671 49.671 0 0 0 22.28-30.521zm-3.088-2.212a57.262 57.262 0 0 1 -30.553-10.364 14.342 14.342 0 0 0 -2.229-6.8 60.744 60.744 0 0 0 28.146-14.277 45.974 45.974 0 0 1 4.636 31.441zm-34.493-6.259a10.878 10.878 0 1 1 .47-3.171 10.989 10.989 0 0 1 -.47 3.171zm28.016-28.252a57.257 57.257 0 0 1 -28.948 14.281 14.441 14.441 0 0 0 -6.368-3.236 60.74 60.74 0 0 0 9.8-29.986 46.206 46.206 0 0 1 25.516 18.941zm-38.416-20.789a46.169 46.169 0 0 1 9.43.977 57.212 57.212 0 0 1 -10.37 30.553 14.367 14.367 0 0 0 -6.794 2.229 60.744 60.744 0 0 0 -14.277-28.146 45.808 45.808 0 0 1 22.011-5.613zm-25.081 7.454a57.257 57.257 0 0 1 14.281 28.948 14.437 14.437 0 0 0 -3.235 6.368 60.852 60.852 0 0 0 -29.987-9.8 46.206 46.206 0 0 1 18.941-25.516zm-19.812 28.986a57.264 57.264 0 0 1 30.553 10.364 14.342 14.342 0 0 0 2.229 6.8 60.744 60.744 0 0 0 -28.146 14.277 45.974 45.974 0 0 1 -4.636-31.441zm6.477 34.511a57.257 57.257 0 0 1 28.948-14.281 14.437 14.437 0 0 0 6.368 3.235 60.852 60.852 0 0 0 -9.8 29.987 46.206 46.206 0 0 1 -25.516-18.941zm38.416 20.789a46.169 46.169 0 0 1 -9.43-.977 57.262 57.262 0 0 1 10.364-30.553 14.342 14.342 0 0 0 6.8-2.229 60.744 60.744 0 0 0 14.277 28.146 45.808 45.808 0 0 1 -22.011 5.613zm25.081-7.454a57.257 57.257 0 0 1 -14.281-28.948 14.437 14.437 0 0 0 3.235-6.368 60.852 60.852 0 0 0 29.987 9.8 46.206 46.206 0 0 1 -18.941 25.516z"/></svg>